<svg width="434" height="150" viewBox="0 0 434 150" fill="none" xmlns="http://www.w3.org/2000/svg">
<path d="M205.261 64.23C207.451 64.23 209.356 64.545 210.976 65.175C212.596 65.805 214.111 66.765 215.521 68.055L212.596 71.43C211.486 70.5 210.361 69.825 209.221 69.405C208.111 68.985 206.911 68.775 205.621 68.775C204.181 68.775 203.011 69.105 202.111 69.765C201.241 70.395 200.806 71.295 200.806 72.465C200.806 73.245 200.971 73.89 201.301 74.4C201.661 74.91 202.291 75.39 203.191 75.84C204.091 76.29 205.426 76.785 207.196 77.325C210.256 78.285 212.551 79.485 214.081 80.925C215.641 82.335 216.421 84.405 216.421 87.135C216.421 88.995 215.941 90.645 214.981 92.085C214.051 93.525 212.701 94.65 210.931 95.46C209.161 96.27 207.061 96.675 204.631 96.675C202.261 96.675 200.131 96.3 198.241 95.55C196.381 94.77 194.776 93.72 193.426 92.4L196.486 88.98C197.686 90 198.931 90.78 200.221 91.32C201.511 91.83 202.936 92.085 204.496 92.085C206.206 92.085 207.586 91.68 208.636 90.87C209.686 90.06 210.211 88.92 210.211 87.45C210.211 86.55 210.031 85.815 209.671 85.245C209.311 84.645 208.696 84.12 207.826 83.67C206.956 83.19 205.696 82.695 204.046 82.185C200.746 81.165 198.361 79.935 196.891 78.495C195.421 77.055 194.686 75.165 194.686 72.825C194.686 71.115 195.136 69.615 196.036 68.325C196.936 67.035 198.181 66.03 199.771 65.31C201.391 64.59 203.221 64.23 205.261 64.23ZM240.5 64.905L239.87 69.63H231.77V96H225.785V69.63H217.415V64.905H240.5ZM254.725 64.23C257.515 64.23 259.93 64.86 261.97 66.12C264.01 67.38 265.57 69.225 266.65 71.655C267.76 74.085 268.315 77.01 268.315 80.43C268.315 83.82 267.76 86.73 266.65 89.16C265.54 91.59 263.965 93.45 261.925 94.74C259.885 96.03 257.485 96.675 254.725 96.675C251.935 96.675 249.52 96.045 247.48 94.785C245.44 93.525 243.865 91.68 242.755 89.25C241.645 86.82 241.09 83.895 241.09 80.475C241.09 77.115 241.645 74.22 242.755 71.79C243.865 69.33 245.44 67.455 247.48 66.165C249.55 64.875 251.965 64.23 254.725 64.23ZM254.725 68.775C252.325 68.775 250.495 69.72 249.235 71.61C247.975 73.47 247.345 76.425 247.345 80.475C247.345 88.245 249.805 92.13 254.725 92.13C257.125 92.13 258.94 91.2 260.17 89.34C261.43 87.48 262.06 84.51 262.06 80.43C262.06 76.38 261.43 73.425 260.17 71.565C258.94 69.705 257.125 68.775 254.725 68.775ZM285.793 64.23C287.683 64.23 289.333 64.5 290.743 65.04C292.153 65.58 293.533 66.405 294.883 67.515L291.868 71.025C290.038 69.555 288.118 68.82 286.108 68.82C283.798 68.82 281.938 69.75 280.528 71.61C279.148 73.47 278.458 76.395 278.458 80.385C278.458 84.285 279.148 87.18 280.528 89.07C281.908 90.96 283.768 91.905 286.108 91.905C287.338 91.905 288.433 91.695 289.393 91.275C290.353 90.825 291.373 90.195 292.453 89.385L295.243 92.895C294.193 93.975 292.858 94.875 291.238 95.595C289.648 96.315 287.863 96.675 285.883 96.675C283.183 96.675 280.798 96.045 278.728 94.785C276.658 93.525 275.053 91.68 273.913 89.25C272.773 86.79 272.203 83.835 272.203 80.385C272.203 76.995 272.788 74.085 273.958 71.655C275.158 69.225 276.778 67.38 278.818 66.12C280.888 64.86 283.213 64.23 285.793 64.23ZM305.429 64.905V96H299.489V64.905H305.429ZM322.889 64.905L312.134 78.99L323.744 96H316.679L305.699 79.395L316.454 64.905H322.889ZM324.156 84.21V79.62H337.746V84.21H324.156ZM355.578 64.23C357.468 64.23 359.118 64.5 360.528 65.04C361.938 65.58 363.318 66.405 364.668 67.515L361.653 71.025C359.823 69.555 357.903 68.82 355.893 68.82C353.583 68.82 351.723 69.75 350.313 71.61C348.933 73.47 348.243 76.395 348.243 80.385C348.243 84.285 348.933 87.18 350.313 89.07C351.693 90.96 353.553 91.905 355.893 91.905C357.123 91.905 358.218 91.695 359.178 91.275C360.138 90.825 361.158 90.195 362.238 89.385L365.028 92.895C363.978 93.975 362.643 94.875 361.023 95.595C359.433 96.315 357.648 96.675 355.668 96.675C352.968 96.675 350.583 96.045 348.513 94.785C346.443 93.525 344.838 91.68 343.698 89.25C342.558 86.79 341.988 83.835 341.988 80.385C341.988 76.995 342.573 74.085 343.743 71.655C344.943 69.225 346.563 67.38 348.603 66.12C350.673 64.86 352.998 64.23 355.578 64.23ZM378.994 83.535H375.214V96H369.274V64.905H378.544C386.764 64.905 390.874 67.95 390.874 74.04C390.874 76.11 390.364 77.82 389.344 79.17C388.324 80.52 386.734 81.615 384.574 82.455L392.719 96H385.879L378.994 83.535ZM375.214 79.26H378.904C380.794 79.26 382.219 78.855 383.179 78.045C384.169 77.205 384.664 75.87 384.664 74.04C384.664 72.36 384.154 71.145 383.134 70.395C382.144 69.615 380.569 69.225 378.409 69.225H375.214V79.26ZM426.259 96H420.454L419.644 82.995C419.374 78.345 419.239 74.655 419.239 71.925V70.305L413.569 92.625H407.944L401.914 70.26C401.974 72.24 402.004 73.74 402.004 74.76C402.004 77.49 401.914 80.295 401.734 83.175L400.969 96H395.209L397.684 64.905H405.334L410.869 86.685L416.089 64.905H423.829L426.259 96Z" fill="#1F2225"/>
<path d="M8.72126 110.521L6.54181 105.636C1.43083 94.2142 -0.741349 81.6949 0.223159 69.2186C1.18767 56.7423 5.25821 44.7056 12.0639 34.2051C18.8697 23.7047 28.1943 15.0741 39.1883 9.09979C50.1824 3.12545 62.4964 -0.00281079 75.0085 1.89503e-06H80.365V78.4721L8.72126 110.521Z" fill="#18A058"/>
<path d="M91.078 11.5381V85.4164L20.981 116.779C27.2187 126.928 35.9515 135.309 46.3469 141.124C56.7423 146.94 68.4538 149.995 80.365 150C118.761 150 150 118.758 150 80.3573C150 45.5995 124.406 16.7077 91.078 11.5381Z" fill="#18A058" fill-opacity="0.46"/>
</svg>
